<?xml version="1.0" encoding="utf-8"?>
<!-- Generator: Adobe Illustrator 19.2.0, SVG Export Plug-In . SVG Version: 6.00 Build 0)  -->
<svg version="1.1" id="圖層_1" xmlns="http://www.w3.org/2000/svg" xmlns:xlink="http://www.w3.org/1999/xlink" x="0px" y="0px"
	 viewBox="0 0 841.9 595.3" style="enable-background:new 0 0 841.9 595.3;" xml:space="preserve">
<style type="text/css">
	.st0{fill:#FFFFFF;stroke:#000000;stroke-miterlimit:10;}
</style>
<path class="st0" d="M521.9,377c-1,0.2,1.4-6.3-0.1-8.5c-1.4-1.9,33.3-7.1,34.3-11.9c1-4.9-4.3,24.3-0.9,22.5
	c1.7-0.9,12.4-21.3,23.4-19.9c26,3.4,23.3,38.4,8.2,47.6c-8.7,5.3-22.7-8.5-19.9-20.8c2-8.8,10.6-7.9,15.1-6.5
	c6.1,1.8-2.7-12.5-13.8-5.6c-4.9,3-12.1,8-11.7,32.9c0.6,34,4.8,68.8,9,75.2c0,0-30.8-0.2-31.7-0.1c0,0-2.4-78.6-0.2-97.9
	C533.8,381.1,524,376.5,521.9,377z"/>
<path class="st0" d="M559.3,266.3c-7.5,6.7-15.6,19.6-4.9,26.1c9.6,3.5,17.9,1.9,22.7-12.1c0.4-2.9,10.5-18.6-13.1-36.4
	c-7.7-5.8-30.3-20-56-5.1c-19.7,11.4-40.3,25.8-55,89.9l-61.7-9l-5.2,24.5l65.8-1.1c-5.4,46-6.1,93.6-4.3,138.8h39.9
	c-11.6-34.6-13.9-87.4-11.3-142.4l62.1,5.1l5.4-17.7l-65.2,1.5c5.6-26.5,11.9-50.9,20.8-67.8c10.8-17,23.4-29.1,41.4-24
	C558.2,240.7,564.8,261.3,559.3,266.3z"/>
<path class="st0" d="M363.1,379.7c12.3-9,23-9.3,23-16.9s-22,3.5-23-6.1c-0.7-7.1,13.7-131.8,9.2-138.1c-4.4-6.1-20.7-25.1-26.1-7.7
	c-13.8,44.6-168,281.3-176.5,250.8c4,16.7,13.4,22.1,23,16.2l65.2-69.1c7-6.9,36.6-17.2,72.9-21.5c-0.2,42.3,13.9,70.2,35.3,90.5
	c9.7-2.7,15.7-10.2,19.9-19.9C371.7,433,362.2,407.2,363.1,379.7z M332.7,368.7c1.6,4.6-50.7,6.4-54.7,0.3
	c-4.1-6.2,52.5-77.8,60-89.1c0.2-0.8,0.4-1.3,0.6-1.4c0.4-0.3,0.2,0.2-0.6,1.4C335.1,290.6,329.2,358.9,332.7,368.7z"/>
<path class="st0" d="M86.6,228.9c7.1,3.5,213.8-17.5,224.4-23.8c7-4.2,9.9,2.1,0,10.2s-100.8,20.7-111.7,26.4
	c-16.1,8.4-60.9,226.2-63,231.6c-4.1,10.9-35.6,7.7-37.4,0c-0.9-4,74.2-213.8,61.7-224.2c-8.3-7-64,10.2-73.1,8.1
	C78.4,255,78.1,224.8,86.6,228.9z"/>
<path class="st0" d="M755.1,458.4c7-6.2,4.7-38,4.3-41c-0.3-1.7-4-17.8-14.7-22.7c-9.3-4.2-38-9.7-56.1,2.5
	c-18.1,12.3-10.4,65.7-10.4,65.8c0,0,0.2,11.2,22.1,18.1s48.9,3.1,52.5-4.8c3.4-7.4-3.5-10.3-6-10c-3.4,0.4-19.5,4-21,4.2
	c-1.2,0.2-18.8,2.7-16.8-8.1C708.9,462.6,748.3,464.4,755.1,458.4z M706.7,448.9c-2.4-28.2,3.9-42.5,5.6-43.8
	c1.7-1.3,13-8.3,16.6,8.3c3.6,16.6-2.6,36.5-2.6,36.5L706.7,448.9z"/>
<path class="st0" d="M669.3,458.4c7-6.2,4.7-38,4.3-41c-0.3-1.7-4-17.8-14.7-22.7c-9.3-4.2-38-9.7-56.1,2.5
	c-18.1,12.3-10.4,65.7-10.4,65.8c0,0,0.2,11.2,22.1,18.1s48.9,3.1,52.5-4.8c3.4-7.4-3.5-10.3-6-10c-3.4,0.4-19.5,4-21,4.2
	c-1.2,0.2-18.8,2.7-16.8-8.1C623.2,462.6,662.6,464.4,669.3,458.4z M621,448.9c-2.4-28.2,3.9-42.5,5.6-43.8c1.7-1.3,13-8.3,16.6,8.3
	c3.6,16.6-2.6,36.5-2.6,36.5L621,448.9z"/>
<path class="st0" d="M590.7,254.9c0,0,6.8-4.5,12.3-5.8c5.5-1.3,16-4.3,23-8.3c7-4.1,10.2-9.3,9.1-18.2
	c-1.1-8.9-11.9-14.8-18.2-12.3c-6.3,2.5-11.1,10-12.7,14.8c-1.5,4.8-1.7,11.2-3.7,16.1C598.6,246,590.7,254.9,590.7,254.9z"/>
<path class="st0" d="M578.6,228.8c0,0-2.3-4.1-4.8-6.2c-2.5-2.1-7.1-6.4-9.6-10.3c-2.5-3.9-2.8-7.4,0.1-11.7s10-4.5,12.5-1.5
	c2.6,3,3.1,8,2.6,10.9c-0.5,2.9-2.1,6.2-2.3,9.2C576.8,222.2,578.6,228.8,578.6,228.8z"/>
</svg>
